<svg width="118" height="16" viewBox="0 0 118 16" fill="none" xmlns="http://www.w3.org/2000/svg">
    <path
        d="M1.1 15.6C0.913333 15.6 0.693333 15.4467 0.44 15.14C0.2 14.82 0.08 14.4933 0.08 14.16C0.08 13.8133 0.513333 11.96 1.38 8.6C2.24667 5.24 2.68 3.13333 2.68 2.28C2.68 2.04 2.70667 1.87333 2.76 1.78C2.81333 1.68667 2.93333 1.64 3.12 1.64C3.32 1.64 3.55333 1.84667 3.82 2.26C4.08667 2.67333 4.22 3.14667 4.22 3.68C4.22 4.21333 3.87333 5.79333 3.18 8.42C4.39333 6.76667 5.67333 5.24667 7.02 3.86C8.36667 2.46 9.22 1.76 9.58 1.76C9.84667 1.76 10.0933 1.84667 10.32 2.02C10.56 2.19333 10.68 2.36667 10.68 2.54C10.68 2.7 10.36 3.07333 9.72 3.66C9.09333 4.23333 8.24667 5.04 7.18 6.08C6.11333 7.12 5.2 8.16 4.44 9.2C4.44 9.74667 4.58667 10.34 4.88 10.98C5.34667 12.0467 6.30667 12.9333 7.76 13.64C8.38667 13.9467 8.87333 14.2067 9.22 14.42C9.58 14.6333 9.76 14.8533 9.76 15.08C9.76 15.4267 9.5 15.6 8.98 15.6C8.46 15.6 7.91333 15.4933 7.34 15.28C6.76667 15.0533 6.19333 14.74 5.62 14.34C5.04667 13.94 4.52 13.4133 4.04 12.76C3.57333 12.0933 3.25333 11.3667 3.08 10.58C2.66667 11.3133 2.28 12.28 1.92 13.48C1.48 14.8933 1.21333 15.6 1.12 15.6H1.1ZM16.7564 5.78C17.3564 5.78 17.9097 6.08667 18.4164 6.7C18.9231 7.3 19.1764 7.84667 19.1764 8.34C19.1764 8.82 19.0097 9.31333 18.6764 9.82C18.8364 10.02 18.9164 10.1933 18.9164 10.34C18.9164 10.7133 18.8297 11.3533 18.6564 12.26C18.4964 13.1667 18.3964 13.76 18.3564 14.04C18.3297 14.32 18.3031 14.5467 18.2764 14.72C18.2497 14.88 18.2164 15.04 18.1764 15.2C18.1231 15.5333 18.0031 15.7 17.8164 15.7C17.5764 15.7 17.3764 15.4933 17.2164 15.08C17.0697 14.6533 16.9831 14.1067 16.9564 13.44C15.7697 14.9467 14.6697 15.7 13.6564 15.7C13.0431 15.7 12.4364 15.44 11.8364 14.92C11.2497 14.3867 10.9564 13.84 10.9564 13.28C10.9564 12.48 11.2497 11.4933 11.8364 10.32C12.4231 9.13333 13.1831 8.08 14.1164 7.16C15.0497 6.24 15.9297 5.78 16.7564 5.78ZM17.6764 9.3C17.6764 8.06 17.4297 7.44 16.9364 7.44C16.4164 7.44 15.8097 7.81333 15.1164 8.56C14.4231 9.29333 13.8364 10.1267 13.3564 11.06C12.8764 11.9933 12.6364 12.7333 12.6364 13.28C12.6364 13.5067 12.7297 13.6933 12.9164 13.84C13.1031 13.9733 13.3231 14.04 13.5764 14.04C14.2031 14.04 14.9097 13.62 15.6964 12.78C16.4831 11.9267 17.0297 10.8933 17.3364 9.68C17.3764 9.48 17.4897 9.36 17.6764 9.32V9.3ZM22.7714 12.22C24.0514 10.0467 25.0914 8.43333 25.8914 7.38C26.7047 6.31333 27.3647 5.78 27.8714 5.78C28.3914 5.78 28.8781 6.05333 29.3314 6.6C29.7981 7.14667 30.0314 7.72667 30.0314 8.34C30.0314 9.3 29.8114 10.4733 29.3714 11.86C28.5714 14.42 27.8514 15.7 27.2114 15.7C26.9181 15.7 26.7714 15.5 26.7714 15.1C26.7714 14.82 26.9114 14.2533 27.1914 13.4C27.4847 12.5333 27.7514 11.6867 27.9914 10.86C28.2447 10.02 28.3714 9.39333 28.3714 8.98C28.3714 8.55333 28.3047 8.24 28.1714 8.04C28.0514 7.84 27.9247 7.74 27.7914 7.74C27.6714 7.74 27.5447 7.78 27.4114 7.86C27.2781 7.94 27.1247 8.07333 26.9514 8.26C26.7914 8.44667 26.6381 8.63333 26.4914 8.82C26.3447 8.99333 26.1581 9.24667 25.9314 9.58C25.7181 9.91333 25.5381 10.2 25.3914 10.44C25.2447 10.6667 25.0314 11 24.7514 11.44C24.4714 11.88 24.2581 12.2133 24.1114 12.44C23.9647 12.6667 23.7714 12.9733 23.5314 13.36C23.2914 13.7467 23.0981 14.0467 22.9514 14.26C22.8181 14.4733 22.6647 14.7067 22.4914 14.96C22.1581 15.4533 21.8914 15.7 21.6914 15.7C21.5047 15.7 21.2847 15.5533 21.0314 15.26C20.7781 14.9533 20.6514 14.6867 20.6514 14.46C20.6514 14.3933 20.6981 14.2133 20.7914 13.92C21.0447 13.1467 21.3247 12.1933 21.6314 11.06C21.9381 9.91333 22.1047 8.61333 22.1314 7.16C22.1714 6.18667 22.3114 5.7 22.5514 5.7C22.8447 5.7 23.1381 5.85333 23.4314 6.16C23.7247 6.46667 23.8714 6.80667 23.8714 7.18C23.8714 7.54 23.7581 8.24667 23.5314 9.3C23.3181 10.34 23.0647 11.3133 22.7714 12.22ZM32.3355 15.7C32.1488 15.7 31.9288 15.56 31.6755 15.28C31.4221 14.9867 31.2955 14.7133 31.2955 14.46C31.2955 14.2067 31.5021 13.34 31.9155 11.86C32.3421 10.38 32.7621 8.6 33.1755 6.52C33.6021 4.42667 33.8155 2.51333 33.8155 0.779999C33.8155 0.38 33.9621 0.18 34.2555 0.18C34.4688 0.18 34.7288 0.38 35.0355 0.779999C35.3421 1.16667 35.4955 1.54667 35.4955 1.92C35.4955 3.56 35.1355 5.9 34.4155 8.94C36.0021 6.79333 37.4421 5.72 38.7355 5.72C39.3621 5.72 39.8888 6.02667 40.3155 6.64C40.7555 7.25333 40.9755 7.98667 40.9755 8.84C40.9755 9.68 40.7288 10.6467 40.2355 11.74C39.7555 12.8333 39.1021 13.7733 38.2755 14.56C37.4488 15.3333 36.5821 15.72 35.6755 15.72C34.7688 15.72 33.8755 15.26 32.9955 14.34L32.9755 14.36C32.6821 15.2533 32.4688 15.7 32.3355 15.7ZM35.5155 14.16C36.3821 14.16 37.2288 13.5733 38.0555 12.4C38.8955 11.2133 39.3155 9.96667 39.3155 8.66C39.3155 7.87333 39.0755 7.48 38.5955 7.48C37.8221 7.48 36.9555 8.02 35.9955 9.1C35.0488 10.18 34.2288 11.4667 33.5355 12.96C34.1621 13.76 34.8221 14.16 35.5155 14.16ZM47.3033 5.78C47.9033 5.78 48.4566 6.08667 48.9633 6.7C49.4699 7.3 49.7233 7.84667 49.7233 8.34C49.7233 8.82 49.5566 9.31333 49.2233 9.82C49.3833 10.02 49.4633 10.1933 49.4633 10.34C49.4633 10.7133 49.3766 11.3533 49.2033 12.26C49.0433 13.1667 48.9433 13.76 48.9033 14.04C48.8766 14.32 48.8499 14.5467 48.8233 14.72C48.7966 14.88 48.7633 15.04 48.7233 15.2C48.6699 15.5333 48.5499 15.7 48.3633 15.7C48.1233 15.7 47.9233 15.4933 47.7633 15.08C47.6166 14.6533 47.5299 14.1067 47.5033 13.44C46.3166 14.9467 45.2166 15.7 44.2033 15.7C43.5899 15.7 42.9833 15.44 42.3833 14.92C41.7966 14.3867 41.5033 13.84 41.5033 13.28C41.5033 12.48 41.7966 11.4933 42.3833 10.32C42.9699 9.13333 43.7299 8.08 44.6633 7.16C45.5966 6.24 46.4766 5.78 47.3033 5.78ZM48.2233 9.3C48.2233 8.06 47.9766 7.44 47.4833 7.44C46.9633 7.44 46.3566 7.81333 45.6633 8.56C44.9699 9.29333 44.3833 10.1267 43.9033 11.06C43.4233 11.9933 43.1833 12.7333 43.1833 13.28C43.1833 13.5067 43.2766 13.6933 43.4633 13.84C43.6499 13.9733 43.8699 14.04 44.1233 14.04C44.7499 14.04 45.4566 13.62 46.2433 12.78C47.0299 11.9267 47.5766 10.8933 47.8833 9.68C47.9233 9.48 48.0366 9.36 48.2233 9.32V9.3ZM53.3183 12.22C54.5983 10.0467 55.6383 8.43333 56.4383 7.38C57.2516 6.31333 57.9116 5.78 58.4183 5.78C58.9383 5.78 59.4249 6.05333 59.8783 6.6C60.3449 7.14667 60.5783 7.72667 60.5783 8.34C60.5783 9.3 60.3583 10.4733 59.9183 11.86C59.1183 14.42 58.3983 15.7 57.7583 15.7C57.4649 15.7 57.3183 15.5 57.3183 15.1C57.3183 14.82 57.4583 14.2533 57.7383 13.4C58.0316 12.5333 58.2983 11.6867 58.5383 10.86C58.7916 10.02 58.9183 9.39333 58.9183 8.98C58.9183 8.55333 58.8516 8.24 58.7183 8.04C58.5983 7.84 58.4716 7.74 58.3383 7.74C58.2183 7.74 58.0916 7.78 57.9583 7.86C57.8249 7.94 57.6716 8.07333 57.4983 8.26C57.3383 8.44667 57.1849 8.63333 57.0383 8.82C56.8916 8.99333 56.7049 9.24667 56.4783 9.58C56.2649 9.91333 56.0849 10.2 55.9383 10.44C55.7916 10.6667 55.5783 11 55.2983 11.44C55.0183 11.88 54.8049 12.2133 54.6583 12.44C54.5116 12.6667 54.3183 12.9733 54.0783 13.36C53.8383 13.7467 53.6449 14.0467 53.4983 14.26C53.3649 14.4733 53.2116 14.7067 53.0383 14.96C52.7049 15.4533 52.4383 15.7 52.2383 15.7C52.0516 15.7 51.8316 15.5533 51.5783 15.26C51.3249 14.9533 51.1983 14.6867 51.1983 14.46C51.1983 14.3933 51.2449 14.2133 51.3383 13.92C51.5916 13.1467 51.8716 12.1933 52.1783 11.06C52.4849 9.91333 52.6516 8.61333 52.6783 7.16C52.7183 6.18667 52.8583 5.7 53.0983 5.7C53.3916 5.7 53.6849 5.85333 53.9783 6.16C54.2716 6.46667 54.4183 6.80667 54.4183 7.18C54.4183 7.54 54.3049 8.24667 54.0783 9.3C53.8649 10.34 53.6116 11.3133 53.3183 12.22ZM80.9297 10.92C80.9297 11.7067 80.523 12.4733 79.7097 13.22C78.8964 13.9533 77.843 14.5467 76.5497 15C75.2564 15.44 73.9364 15.66 72.5897 15.66C71.803 15.66 71.0964 15.44 70.4697 15C69.8564 14.56 69.5497 14.1533 69.5497 13.78C69.5497 13.3933 69.663 13.2 69.8897 13.2C69.943 13.2 70.203 13.3467 70.6697 13.64C71.1497 13.92 71.6497 14.0667 72.1697 14.08C71.983 13.9867 71.803 13.8133 71.6297 13.56C71.4697 13.3067 71.3897 13.0667 71.3897 12.84C71.3897 12.6133 71.5497 11.98 71.8697 10.94C72.8564 7.80667 73.363 5.4 73.3897 3.72H73.2297C72.9897 3.72 72.743 3.57333 72.4897 3.28C72.2364 2.97333 72.1097 2.72667 72.1097 2.54C72.1097 2.31333 72.3897 2.12 72.9497 1.96C73.523 1.78667 74.2097 1.7 75.0097 1.7C76.8764 1.7 78.3164 1.95333 79.3297 2.46C80.343 2.96667 80.8497 3.7 80.8497 4.66C80.8497 5.46 80.5097 6.18667 79.8297 6.84C79.163 7.49333 78.183 8.02 76.8897 8.42L77.0697 8.44C78.1897 8.50667 79.1097 8.78 79.8297 9.26C80.563 9.74 80.9297 10.2933 80.9297 10.92ZM79.0497 4.76C79.0497 4.32 78.823 3.98 78.3697 3.74C77.9297 3.48667 77.3897 3.36 76.7497 3.36C76.123 3.36 75.3564 3.44 74.4497 3.6C74.823 4 75.0097 4.38667 75.0097 4.76C75.0097 5.12 74.7764 6.22 74.3097 8.06C74.6297 7.86 75.1297 7.63333 75.8097 7.38C76.4897 7.11333 77.023 6.88 77.4097 6.68C77.8097 6.48 78.0964 6.30667 78.2697 6.16C78.4564 6 78.6297 5.79333 78.7897 5.54C78.963 5.28667 79.0497 5.02667 79.0497 4.76ZM79.1897 10.84C79.1897 10.44 78.723 10.1067 77.7897 9.84C76.8697 9.56 75.9497 9.42 75.0297 9.42C74.6697 9.42 74.3564 9.23333 74.0897 8.86C73.2764 12.0733 72.743 13.8133 72.4897 14.08C73.4364 14.0533 74.4297 13.8867 75.4697 13.58C76.5097 13.26 77.3897 12.8467 78.1097 12.34C78.8297 11.8333 79.1897 11.3333 79.1897 10.84ZM88.8241 9.18C88.8241 8.72667 88.7507 8.3 88.6041 7.9C88.4574 7.48667 88.2441 7.18667 87.9641 7C87.0441 7.25333 86.2507 7.96667 85.5841 9.14C84.9307 10.3 84.6041 11.3933 84.6041 12.42C84.6041 13.4467 84.8574 14.0867 85.3641 14.34C86.3241 14.1533 87.1374 13.5 87.8041 12.38C88.4841 11.2467 88.8241 10.18 88.8241 9.18ZM83.5641 9.36C84.0307 8.32 84.6374 7.46667 85.3841 6.8C86.1441 6.12 86.9174 5.78 87.7041 5.78C88.5041 5.78 89.1707 6.12 89.7041 6.8C90.2374 7.46667 90.5041 8.28667 90.5041 9.26C90.5041 10.22 90.2707 11.2067 89.8041 12.22C89.3374 13.22 88.6907 14.0533 87.8641 14.72C87.0507 15.3733 86.1841 15.7 85.2641 15.7C84.5841 15.7 84.0174 15.3867 83.5641 14.76C83.1107 14.1333 82.8841 13.34 82.8841 12.38C82.8841 11.4067 83.1107 10.4 83.5641 9.36ZM97.1666 5.78C97.7666 5.78 98.3199 6.08667 98.8266 6.7C99.3332 7.3 99.5866 7.84667 99.5866 8.34C99.5866 8.82 99.4199 9.31333 99.0866 9.82C99.2466 10.02 99.3266 10.1933 99.3266 10.34C99.3266 10.7133 99.2399 11.3533 99.0666 12.26C98.9066 13.1667 98.8066 13.76 98.7666 14.04C98.7399 14.32 98.7132 14.5467 98.6866 14.72C98.6599 14.88 98.6266 15.04 98.5866 15.2C98.5332 15.5333 98.4132 15.7 98.2266 15.7C97.9866 15.7 97.7866 15.4933 97.6266 15.08C97.4799 14.6533 97.3932 14.1067 97.3666 13.44C96.1799 14.9467 95.0799 15.7 94.0666 15.7C93.4532 15.7 92.8466 15.44 92.2466 14.92C91.6599 14.3867 91.3666 13.84 91.3666 13.28C91.3666 12.48 91.6599 11.4933 92.2466 10.32C92.8332 9.13333 93.5932 8.08 94.5266 7.16C95.4599 6.24 96.3399 5.78 97.1666 5.78ZM98.0866 9.3C98.0866 8.06 97.8399 7.44 97.3466 7.44C96.8266 7.44 96.2199 7.81333 95.5266 8.56C94.8332 9.29333 94.2466 10.1267 93.7666 11.06C93.2866 11.9933 93.0466 12.7333 93.0466 13.28C93.0466 13.5067 93.1399 13.6933 93.3266 13.84C93.5132 13.9733 93.7332 14.04 93.9866 14.04C94.6132 14.04 95.3199 13.62 96.1066 12.78C96.8932 11.9267 97.4399 10.8933 97.7466 9.68C97.7866 9.48 97.8999 9.36 98.0866 9.32V9.3ZM102.422 8.22L102.362 6.72C102.362 6.09333 102.508 5.78 102.802 5.78C103.055 5.78 103.295 5.94667 103.522 6.28C103.762 6.6 103.882 6.98667 103.882 7.44C103.882 7.88 103.868 8.21333 103.842 8.44C105.002 6.68 106.102 5.8 107.142 5.8C107.795 5.8 108.122 5.96 108.122 6.28C108.122 6.44 108.048 6.58667 107.902 6.72C107.755 6.85333 107.522 7.00667 107.202 7.18C106.495 7.48667 105.895 7.96 105.402 8.6C104.922 9.22667 104.528 9.94 104.222 10.74C103.915 11.54 103.668 12.2133 103.482 12.76C103.308 13.3067 103.175 13.7333 103.082 14.04C102.988 14.3467 102.882 14.6467 102.762 14.94C102.548 15.4733 102.302 15.74 102.022 15.74C101.795 15.74 101.608 15.6133 101.462 15.36C101.328 15.0933 101.262 14.84 101.262 14.6C101.262 14.3467 101.375 13.8533 101.602 13.12C102.148 11.44 102.422 9.80667 102.422 8.22ZM116.403 0.18C116.616 0.18 116.876 0.38 117.183 0.779999C117.503 1.16667 117.663 1.53333 117.663 1.88C117.663 2.22667 117.496 3.21333 117.163 4.84C116.829 6.45333 116.443 8.12667 116.003 9.86C115.043 13.7533 114.409 15.7 114.103 15.7C113.916 15.7 113.709 15.5867 113.483 15.36C113.269 15.12 113.163 14.9133 113.163 14.74C113.163 14.5667 113.209 14.22 113.303 13.7C111.996 15.0333 110.856 15.7 109.883 15.7C109.296 15.7 108.763 15.4333 108.283 14.9C107.816 14.3667 107.583 13.8133 107.583 13.24C107.583 12.4133 107.803 11.4333 108.243 10.3C108.696 9.15333 109.343 8.11333 110.183 7.18C111.023 6.24667 111.916 5.78 112.863 5.78C113.809 5.78 114.469 6.34667 114.843 7.48C115.523 4.65333 115.896 2.42 115.963 0.779999C115.963 0.38 116.109 0.18 116.403 0.18ZM114.203 10C114.203 9.28 114.076 8.67333 113.823 8.18C113.583 7.68667 113.289 7.44 112.943 7.44C112.369 7.44 111.783 7.79333 111.183 8.5C110.583 9.20667 110.103 10.02 109.743 10.94C109.396 11.8467 109.223 12.6333 109.223 13.3C109.223 13.54 109.309 13.7333 109.483 13.88C109.656 14.0267 109.863 14.1 110.103 14.1C110.623 14.1 111.323 13.7267 112.203 12.98C113.096 12.2333 113.743 11.3533 114.143 10.34L114.203 10.1V10Z"
        fill="#0066FF" />
</svg>