<svg id="visual" viewBox="0 0 900 600" width="900" height="600" xmlns="http://www.w3.org/2000/svg" xmlns:xlink="http://www.w3.org/1999/xlink" version="1.1"><rect x="0" y="0" width="900" height="600" fill="#ffffff"></rect><path d="M237 0L240.5 14.3C244 28.7 251 57.3 242.5 85.8C234 114.3 210 142.7 190.2 171.2C170.3 199.7 154.7 228.3 162.2 257C169.7 285.7 200.3 314.3 198.3 343C196.3 371.7 161.7 400.3 166.7 428.8C171.7 457.3 216.3 485.7 225 514.2C233.7 542.7 206.3 571.3 192.7 585.7L179 600L0 600L0 585.7C0 571.3 0 542.7 0 514.2C0 485.7 0 457.3 0 428.8C0 400.3 0 371.7 0 343C0 314.3 0 285.7 0 257C0 228.3 0 199.7 0 171.2C0 142.7 0 114.3 0 85.8C0 57.3 0 28.7 0 14.3L0 0Z" fill="#0066FF" stroke-linecap="round" stroke-linejoin="miter"></path></svg>