<svg id="visual" viewBox="0 0 900 600" width="900" height="600" xmlns="http://www.w3.org/2000/svg" xmlns:xlink="http://www.w3.org/1999/xlink" version="1.1"><rect x="0" y="0" width="900" height="600" fill="#ffffff"></rect><path d="M586 600L587.3 587.5C588.7 575 591.3 550 620.8 525C650.3 500 706.7 475 731.2 450C755.7 425 748.3 400 721.2 375C694 350 647 325 623.8 300C600.7 275 601.3 250 624.3 225C647.3 200 692.7 175 700.8 150C709 125 680 100 674.5 75C669 50 687 25 696 12.5L705 0L900 0L900 12.5C900 25 900 50 900 75C900 100 900 125 900 150C900 175 900 200 900 225C900 250 900 275 900 300C900 325 900 350 900 375C900 400 900 425 900 450C900 475 900 500 900 525C900 550 900 575 900 587.5L900 600Z" fill="#0066FF" stroke-linecap="round" stroke-linejoin="miter"></path></svg>